<svg width="456" height="482" viewBox="0 0 456 482" fill="none" xmlns="http://www.w3.org/2000/svg">
<g style="mix-blend-mode:overlay">
<path d="M-515.229 -527L-515.23 960.229M970.229 -525.229L-517 -525.23M-472.737 -527L-472.737 960.229M970.229 -482.737L-517 -482.737M-430.245 -527L-430.245 960.229M970.229 -440.245L-517 -440.245M-387.753 -527L-387.753 960.229M970.229 -397.753L-517 -397.753M-345.26 -527L-345.26 960.229M970.229 -355.26L-517 -355.261M-302.768 -527L-302.768 960.229M970.229 -312.768L-517 -312.768M-260.276 -527L-260.276 960.229M970.229 -270.276L-517 -270.276M-217.784 -527L-217.784 960.229M970.229 -227.784L-517 -227.784M-175.291 -527L-175.291 960.229M970.229 -185.291L-517 -185.291M-132.799 -527L-132.799 960.229M970.229 -142.799L-517 -142.799M-90.3068 -527L-90.3069 960.229M970.229 -100.307L-517 -100.307M-47.8145 -527L-47.8146 960.229M970.229 -57.8145L-517 -57.8147M-5.32224 -527L-5.3223 960.229M970.229 -15.3222L-517 -15.3224M37.17 -527L37.17 960.229M970.229 27.17L-517 27.1699M79.6623 -527L79.6622 960.229M970.229 69.6623L-517 69.6621M122.155 -527V960.229M970.229 112.155L-517 112.154M164.647 -527L164.647 960.229M970.229 154.647L-517 154.647M207.139 -527L207.139 960.229M970.229 197.139L-517 197.139M249.631 -527L249.631 960.229M970.229 239.631L-517 239.631M292.124 -527L292.124 960.229M970.229 282.124L-517 282.123M334.616 -527L334.616 960.229M970.229 324.616L-517 324.616M377.108 -527L377.108 960.229M970.229 367.108L-517 367.108M419.6 -527L419.6 960.229M970.229 409.6L-517 409.6M462.093 -527L462.093 960.229M970.229 452.093L-517 452.093M504.585 -527L504.585 960.229M970.229 494.585L-517 494.585M547.077 -527L547.077 960.229M970.229 537.077L-517 537.077M589.57 -527L589.569 960.229M970.229 579.57L-517 579.569M632.062 -527L632.062 960.229M970.229 622.062L-517 622.062M674.554 -527L674.554 960.229M970.229 664.554L-517 664.554M717.046 -527L717.046 960.229M970.229 707.046L-517 707.046M759.539 -527V960.229M970.229 749.539H-517M802.031 -527L802.031 960.229M970.229 792.031L-517 792.031M844.523 -527L844.523 960.229M970.229 834.523L-517 834.523M887.015 -527V960.229M970.229 877.015H-517M929.508 -527L929.508 960.229M970.229 919.508L-517 919.508M972 -527L972 960.229M970.229 962L-517 962" stroke="url(#paint0_radial_6303_2906)" stroke-opacity="0.8"/>
</g>
<defs>
<radialGradient id="paint0_radial_6303_2906" cx="0" cy="0" r="1" gradientUnits="userSpaceOnUse" gradientTransform="translate(228.453 176) rotate(90) scale(235 242.35)">
<stop stop-color="white"/>
<stop offset="0.622173" stop-color="white" stop-opacity="0"/>
</radialGradient>
</defs>
</svg>
