<svg width="249" height="110" viewBox="0 0 249 110" fill="none" xmlns="http://www.w3.org/2000/svg">
<path opacity="0.1" d="M177.144 109L177.144 72.9998M212.572 109V72.9998M248 109V72.9998M35.4324 109V72.9998M70.8603 109V72.9998M106.288 109V72.9998M131.083 109C141.712 109 141.712 98.2001 141.712 98.2001C141.712 98.2676 141.712 98.335 141.712 98.398C141.84 109 152.336 109 152.336 109M0.00446575 72.9998H35.4324M35.4324 72.9998H70.8603M35.4324 72.9998V36.9999M70.8603 72.9998H106.288M70.8603 72.9998V47.6335M106.288 72.9998H141.716M106.288 72.9998V36.9999M141.716 72.9998H177.144M141.716 72.9998V98.3979M141.716 72.9998L141.716 36.9999M177.144 72.9998H212.572M177.144 72.9998V36.9999M212.572 72.9998H248M212.572 72.9998L212.572 43M248 72.9998V36.9999M81.4842 36.9999H106.288M106.288 36.9999H141.716M106.288 36.9999L106.288 1M141.716 36.9999H177.144M141.716 36.9999V1M177.144 36.9999V1M177.144 36.9999L206.5 37M248 36.9999V9C248 4.58172 244.418 1 240 1H212.572M248 36.9999H218.5M60.2275 36.9999H35.4324M60.2275 36.9999C60.2275 36.9999 70.8558 37 70.8558 47.7999C70.8558 47.7999 70.8558 47.7414 70.8558 47.6334V47.6109C70.9178 46.1799 71.684 36.9999 81.4798 36.9999C81.4798 36.9999 71.0152 37 70.8558 26.4475C70.8558 26.443 70.8558 26.4384 70.8558 26.4294C70.8558 26.3529 70.8558 26.2764 70.8558 26.1999C70.8558 26.1999 70.8559 36.9999 60.2275 36.9999ZM35.4324 36.9999H0.00446575M0.00441874 1H35.4324H70.8602M70.8602 1H106.288M70.8602 1L70.8603 26.4295M106.288 1H141.716M106.288 1H106.284H70.8558H35.4279H0M106.288 1H141.712H141.716M141.716 1H177.144M141.716 1H177.14H177.144M177.144 1H212.572M177.144 1H212.567H212.572M212.572 1C212.572 12.9317 212.572 20.4145 212.572 31" stroke="url(#paint0_radial_3146_9805)" stroke-miterlimit="10"/>
<g opacity="0.2">
<path d="M212.5 22C208.522 22 204.706 23.5804 201.893 26.3934C199.08 29.2064 197.5 33.0218 197.5 37C197.5 50.5 212.5 61 212.5 61C212.5 61 227.5 50.5 227.5 37C227.5 33.0218 225.92 29.2064 223.107 26.3934C220.294 23.5804 216.478 22 212.5 22ZM212.5 43C211.313 43 210.153 42.6481 209.167 41.9888C208.18 41.3295 207.411 40.3925 206.957 39.2961C206.503 38.1997 206.384 36.9933 206.615 35.8295C206.847 34.6656 207.418 33.5965 208.257 32.7574C209.096 31.9182 210.166 31.3468 211.329 31.1153C212.493 30.8838 213.7 31.0026 214.796 31.4567C215.892 31.9108 216.83 32.6799 217.489 33.6666C218.148 34.6533 218.5 35.8133 218.5 37C218.5 38.5913 217.868 40.1174 216.743 41.2426C215.617 42.3679 214.091 43 212.5 43Z" fill="url(#paint1_radial_3146_9805)" fill-opacity="0.24"/>
<path d="M212.841 60.1252C212.707 60.2272 212.593 60.313 212.5 60.382C212.407 60.313 212.293 60.2272 212.159 60.1252C211.755 59.8164 211.176 59.3589 210.48 58.7675C209.088 57.584 207.232 55.8672 205.377 53.7344C201.656 49.4548 198 43.57 198 37C198 33.1544 199.528 29.4662 202.247 26.747C204.966 24.0277 208.654 22.5 212.5 22.5C216.346 22.5 220.034 24.0277 222.753 26.747C225.472 29.4662 227 33.1544 227 37C227 43.57 223.344 49.4548 219.623 53.7344C217.768 55.8672 215.912 57.584 214.52 58.7675C213.824 59.3589 213.245 59.8164 212.841 60.1252ZM208.889 42.4046C209.958 43.1188 211.214 43.5 212.5 43.5C214.224 43.5 215.877 42.8152 217.096 41.5962C218.315 40.3772 219 38.7239 219 37C219 35.7144 218.619 34.4577 217.905 33.3888C217.19 32.3199 216.175 31.4868 214.987 30.9948C213.8 30.5028 212.493 30.3741 211.232 30.6249C209.971 30.8757 208.813 31.4948 207.904 32.4038C206.995 33.3128 206.376 34.471 206.125 35.7319C205.874 36.9928 206.003 38.2997 206.495 39.4874C206.987 40.6752 207.82 41.6903 208.889 42.4046Z" stroke="white" stroke-opacity="0.06"/>
</g>
<path d="M212.5 43C215.814 43 218.5 40.3137 218.5 37C218.5 33.6863 215.814 31 212.5 31C209.186 31 206.5 33.6863 206.5 37C206.5 40.3137 209.186 43 212.5 43Z" stroke="white" stroke-opacity="0.12" stroke-linecap="round" stroke-linejoin="round"/>
<path d="M227.5 37C227.5 50.5 212.5 61 212.5 61C212.5 61 197.5 50.5 197.5 37C197.5 33.0218 199.08 29.2064 201.893 26.3934C204.706 23.5804 208.522 22 212.5 22C216.478 22 220.294 23.5804 223.107 26.3934C225.92 29.2064 227.5 33.0218 227.5 37Z" stroke="white" stroke-opacity="0.04" stroke-linecap="round" stroke-linejoin="round"/>
<defs>
<radialGradient id="paint0_radial_3146_9805" cx="0" cy="0" r="1" gradientUnits="userSpaceOnUse" gradientTransform="translate(220.659 -4.43122) rotate(171.04) scale(179.329 101.414)">
<stop stop-color="white"/>
<stop offset="1" stop-color="white" stop-opacity="0"/>
</radialGradient>
<radialGradient id="paint1_radial_3146_9805" cx="0" cy="0" r="1" gradientUnits="userSpaceOnUse" gradientTransform="translate(212.5 63.5) rotate(90) scale(41.5 32.1061)">
<stop stop-color="white"/>
<stop offset="1" stop-color="white" stop-opacity="0"/>
</radialGradient>
</defs>
</svg>
