<svg width="360" height="218" viewBox="0 0 360 218" fill="none" xmlns="http://www.w3.org/2000/svg">
<path opacity="0.5" d="M239 194C239 196.209 240.791 198 243 198C245.209 198 247 196.209 247 194C247 191.791 245.209 190 243 190C240.791 190 239 191.791 239 194ZM375 194.75C375.414 194.75 375.75 194.414 375.75 194C375.75 193.586 375.414 193.25 375 193.25V194.75ZM349.058 195.734L348.44 195.309L349.058 195.734ZM330.454 213.206L331.072 212.781L330.454 213.206ZM337.046 213.206L336.428 212.781L337.046 213.206ZM285.442 192.266L284.824 191.841L285.442 192.266ZM243 194.75H282.146V193.25H243V194.75ZM286.06 192.691L298.072 175.219L296.836 174.37L284.824 191.841L286.06 192.691ZM303.428 175.219L329.836 213.63L331.072 212.781L304.664 174.37L303.428 175.219ZM337.664 213.63L349.676 196.159L348.44 195.309L336.428 212.781L337.664 213.63ZM352.354 194.75H375V193.25H352.354V194.75ZM349.676 196.159C350.282 195.277 351.284 194.75 352.354 194.75V193.25C350.79 193.25 349.326 194.02 348.44 195.309L349.676 196.159ZM329.836 213.63C331.723 216.376 335.777 216.376 337.664 213.63L336.428 212.781C335.137 214.659 332.363 214.659 331.072 212.781L329.836 213.63ZM298.072 175.219C299.363 173.341 302.137 173.341 303.428 175.219L304.664 174.37C302.777 171.624 298.723 171.624 296.836 174.37L298.072 175.219ZM282.146 194.75C283.71 194.75 285.174 193.98 286.06 192.691L284.824 191.841C284.218 192.723 283.216 193.25 282.146 193.25V194.75Z" fill="url(#paint0_linear_7260_27448)" fill-opacity="0.64"/>
<path opacity="0.5" d="M-15 23.25C-15.4142 23.25 -15.75 23.5858 -15.75 24C-15.75 24.4142 -15.4142 24.75 -15 24.75V23.25ZM113 24C113 26.2091 114.791 28 117 28C119.209 28 121 26.2091 121 24C121 21.7909 119.209 20 117 20C114.791 20 113 21.7909 113 24ZM91.058 25.7339L90.4399 25.309L91.058 25.7339ZM72.4538 43.2056L73.0719 42.7807L72.4538 43.2056ZM79.0462 43.2056L78.4281 42.7807L79.0462 43.2056ZM27.442 22.2661L26.824 21.8412L27.442 22.2661ZM-15 24.75H24.1459V23.25H-15V24.75ZM28.0601 22.691L40.0719 5.21932L38.8358 4.36953L26.824 21.8412L28.0601 22.691ZM45.4281 5.21932L71.8358 43.6305L73.0719 42.7807L46.6642 4.36953L45.4281 5.21932ZM79.6642 43.6305L91.676 26.1588L90.4399 25.309L78.4281 42.7807L79.6642 43.6305ZM94.3541 24.75H117V23.25H94.3541V24.75ZM91.676 26.1588C92.2823 25.2769 93.2839 24.75 94.3541 24.75V23.25C92.79 23.25 91.3261 24.0201 90.4399 25.309L91.676 26.1588ZM71.8358 43.6305C73.7232 46.3758 77.7768 46.3758 79.6642 43.6305L78.4281 42.7807C77.1367 44.6591 74.3633 44.6591 73.0719 42.7807L71.8358 43.6305ZM40.0719 5.21932C41.3632 3.34094 44.1368 3.34095 45.4281 5.21932L46.6642 4.36953C44.7768 1.62421 40.7232 1.62421 38.8358 4.36953L40.0719 5.21932ZM24.1459 24.75C25.71 24.75 27.1739 23.9799 28.0601 22.691L26.824 21.8412C26.2177 22.7231 25.2161 23.25 24.1459 23.25V24.75Z" fill="url(#paint1_linear_7260_27448)" fill-opacity="0.64"/>
<defs>
<linearGradient id="paint0_linear_7260_27448" x1="243" y1="194" x2="375" y2="194" gradientUnits="userSpaceOnUse">
<stop stop-color="#BAB3FF"/>
<stop offset="0.886429" stop-color="#BAB3FF" stop-opacity="0"/>
</linearGradient>
<linearGradient id="paint1_linear_7260_27448" x1="-15" y1="24" x2="117" y2="24" gradientUnits="userSpaceOnUse">
<stop offset="0.11419" stop-color="#BAB3FF" stop-opacity="0"/>
<stop offset="1" stop-color="#BAB3FF"/>
</linearGradient>
</defs>
</svg>
