<svg width="304" height="301" viewBox="0 0 304 301" fill="none" xmlns="http://www.w3.org/2000/svg">
<g filter="url(#filter0_di_6300_26185)">
<path d="M153.5 12.5H153V13.5H153.5V12.5ZM16.3536 150.146C16.1583 149.951 15.8417 149.951 15.6464 150.146L12.4645 153.328C12.2692 153.524 12.2692 153.84 12.4645 154.036C12.6597 154.231 12.9763 154.231 13.1716 154.036L16 151.207L18.8284 154.036C19.0237 154.231 19.3403 154.231 19.5355 154.036C19.7308 153.84 19.7308 153.524 19.5355 153.328L16.3536 150.146ZM153.5 13.5C180.596 13.5 207.084 21.5349 229.613 36.5887L230.169 35.7572C207.475 20.5936 180.794 12.5 153.5 12.5V13.5ZM229.613 36.5887C252.143 51.6424 269.702 73.0389 280.072 98.0724L280.995 97.6897C270.55 72.4735 252.863 50.9208 230.169 35.7572L229.613 36.5887ZM280.072 98.0724C290.441 123.106 293.154 150.652 287.868 177.227L288.848 177.422C294.173 150.653 291.44 122.906 280.995 97.6897L280.072 98.0724ZM287.868 177.227C282.581 203.803 269.533 228.214 250.374 247.374L251.081 248.081C270.38 228.781 283.524 204.192 288.848 177.422L287.868 177.227ZM250.374 247.374C231.214 266.533 206.803 279.581 180.227 284.868L180.422 285.848C207.192 280.524 231.781 267.38 251.081 248.081L250.374 247.374ZM180.227 284.868C153.652 290.154 126.106 287.441 101.072 277.072L100.69 277.995C125.906 288.44 153.653 291.173 180.422 285.848L180.227 284.868ZM101.072 277.072C76.0389 266.702 54.6424 249.143 39.5887 226.613L38.7572 227.169C53.9208 249.863 75.4735 267.55 100.69 277.995L101.072 277.072ZM39.5887 226.613C24.5349 204.084 16.5 177.596 16.5 150.5H15.5C15.5 177.794 23.5936 204.475 38.7572 227.169L39.5887 226.613Z" fill="#BAB3FF" fill-opacity="0.16"/>
<path d="M153.5 12.5H153V13.5H153.5V12.5ZM16.3536 150.146C16.1583 149.951 15.8417 149.951 15.6464 150.146L12.4645 153.328C12.2692 153.524 12.2692 153.84 12.4645 154.036C12.6597 154.231 12.9763 154.231 13.1716 154.036L16 151.207L18.8284 154.036C19.0237 154.231 19.3403 154.231 19.5355 154.036C19.7308 153.84 19.7308 153.524 19.5355 153.328L16.3536 150.146ZM153.5 13.5C180.596 13.5 207.084 21.5349 229.613 36.5887L230.169 35.7572C207.475 20.5936 180.794 12.5 153.5 12.5V13.5ZM229.613 36.5887C252.143 51.6424 269.702 73.0389 280.072 98.0724L280.995 97.6897C270.55 72.4735 252.863 50.9208 230.169 35.7572L229.613 36.5887ZM280.072 98.0724C290.441 123.106 293.154 150.652 287.868 177.227L288.848 177.422C294.173 150.653 291.44 122.906 280.995 97.6897L280.072 98.0724ZM287.868 177.227C282.581 203.803 269.533 228.214 250.374 247.374L251.081 248.081C270.38 228.781 283.524 204.192 288.848 177.422L287.868 177.227ZM250.374 247.374C231.214 266.533 206.803 279.581 180.227 284.868L180.422 285.848C207.192 280.524 231.781 267.38 251.081 248.081L250.374 247.374ZM180.227 284.868C153.652 290.154 126.106 287.441 101.072 277.072L100.69 277.995C125.906 288.44 153.653 291.173 180.422 285.848L180.227 284.868ZM101.072 277.072C76.0389 266.702 54.6424 249.143 39.5887 226.613L38.7572 227.169C53.9208 249.863 75.4735 267.55 100.69 277.995L101.072 277.072ZM39.5887 226.613C24.5349 204.084 16.5 177.596 16.5 150.5H15.5C15.5 177.794 23.5936 204.475 38.7572 227.169L39.5887 226.613Z" fill="url(#paint0_linear_6300_26185)" fill-opacity="0.3"/>
</g>
<defs>
<filter id="filter0_di_6300_26185" x="0.317993" y="0.5" width="303.182" height="300" filterUnits="userSpaceOnUse" color-interpolation-filters="sRGB">
<feFlood flood-opacity="0" result="BackgroundImageFix"/>
<feColorMatrix in="SourceAlpha" type="matrix" values="0 0 0 0 0 0 0 0 0 0 0 0 0 0 0 0 0 0 127 0" result="hardAlpha"/>
<feMorphology radius="4" operator="dilate" in="SourceAlpha" result="effect1_dropShadow_6300_26185"/>
<feOffset/>
<feGaussianBlur stdDeviation="4"/>
<feComposite in2="hardAlpha" operator="out"/>
<feColorMatrix type="matrix" values="0 0 0 0 0.0396154 0 0 0 0 0.005 0 0 0 0 0.095 0 0 0 0.08 0"/>
<feBlend mode="normal" in2="BackgroundImageFix" result="effect1_dropShadow_6300_26185"/>
<feBlend mode="normal" in="SourceGraphic" in2="effect1_dropShadow_6300_26185" result="shape"/>
<feColorMatrix in="SourceAlpha" type="matrix" values="0 0 0 0 0 0 0 0 0 0 0 0 0 0 0 0 0 0 127 0" result="hardAlpha"/>
<feMorphology radius="2" operator="erode" in="SourceAlpha" result="effect2_innerShadow_6300_26185"/>
<feOffset/>
<feGaussianBlur stdDeviation="3"/>
<feComposite in2="hardAlpha" operator="arithmetic" k2="-1" k3="1"/>
<feColorMatrix type="matrix" values="0 0 0 0 0.0396154 0 0 0 0 0.005 0 0 0 0 0.095 0 0 0 0.16 0"/>
<feBlend mode="normal" in2="shape" result="effect2_innerShadow_6300_26185"/>
</filter>
<linearGradient id="paint0_linear_6300_26185" x1="16.5" y1="150.5" x2="152.203" y2="12.2263" gradientUnits="userSpaceOnUse">
<stop offset="0.173836" stop-color="#CDB4FF"/>
<stop offset="0.653045" stop-color="#CDB4FF" stop-opacity="0"/>
<stop offset="1" stop-color="#CDB4FF" stop-opacity="0"/>
</linearGradient>
</defs>
</svg>
