<svg width="1024" height="517" viewBox="0 0 1024 517" fill="none" xmlns="http://www.w3.org/2000/svg">
<path d="M785 126V150.5C785 150.5 791 150.5 801 150.5C811 150.5 814.5 155 814.5 164C814.5 173 814.5 190 814.5 190C814.5 190 833 190 840 190C847 190 851.5 194.5 851.5 202C851.5 209.5 851.5 231 851.5 231C851.5 231 876.5 231 884.5 231C892.5 231 897.5 235 897.5 244C897.5 253 897.5 517 897.5 517M237.5 126V150.5H221.5C211.5 150.5 208 155 208 164V190H182.5C175.5 190 171 194.5 171 202V231H138C130 231 125 235 125 244V516" stroke="#404155"/>
</svg>
