<svg width="16" height="16" viewBox="0 0 16 16" fill="none" xmlns="http://www.w3.org/2000/svg">
<path d="M0 8L6.85714 6.85714L8 0L9.14286 6.85714L16 8L9.14286 9.14286L8 16L6.85714 9.14286L0 8Z" fill="#713DFF"/>
<path d="M0 8L6.85714 6.85714L8 0L9.14286 6.85714L16 8L9.14286 9.14286L8 16L6.85714 9.14286L0 8Z" fill="url(#paint0_radial_6337_68155)" fill-opacity="0.5"/>
<path d="M0 8L6.85714 6.85714L8 0L9.14286 6.85714L16 8L9.14286 9.14286L8 16L6.85714 9.14286L0 8Z" fill="url(#paint1_radial_6337_68155)" fill-opacity="0.5"/>
<defs>
<radialGradient id="paint0_radial_6337_68155" cx="0" cy="0" r="1" gradientUnits="userSpaceOnUse" gradientTransform="translate(8.88889 18.0444) rotate(90) scale(27.5556 31.8037)">
<stop stop-color="#887DFF"/>
<stop offset="1" stop-color="#887DFF" stop-opacity="0"/>
</radialGradient>
<radialGradient id="paint1_radial_6337_68155" cx="0" cy="0" r="1" gradientUnits="userSpaceOnUse" gradientTransform="translate(8 17.8667) rotate(83.2141) scale(13.8974)">
<stop stop-color="white"/>
<stop offset="1" stop-color="white" stop-opacity="0"/>
</radialGradient>
</defs>
</svg>
