<svg width="100" height="162" viewBox="0 0 100 162" fill="none" xmlns="http://www.w3.org/2000/svg">
<path d="M69.8551 109C50.2511 98.4258 39.337 98.5694 20 109L28.1159 88.5024H51.5942C52.4528 88.6708 52.9212 88.8082 53.6232 89.3448L55.3623 90.468C56.6401 91.0681 57.5539 91.0891 59.4203 90.7487C58.5724 88.8296 57.7313 87.8353 55.3623 86.2561L39.4203 75.867C31.9654 69.8269 29.1436 66.2081 28.4058 59.0197C28.2971 58.2454 28.1442 57.8115 27.5362 57.0542L20 52L63.1884 74.1823C65.4516 76.6723 65.8728 78.0949 66.3768 80.6404C69.5692 88.4735 72.7771 92.1023 80 97.7684L69.8551 109Z" stroke="#7E58FF"/>
<rect x="1" y="1" width="98" height="160" rx="49" stroke="#7E58FF" stroke-width="2"/>
<path d="M34 19.5C34 20.0523 34.4477 20.5 35 20.5C35.5523 20.5 36 20.0523 36 19.5H34ZM34 4V19.5H36V4H34Z" fill="#7E58FF"/>
<path d="M64 19.5C64 20.0523 64.4477 20.5 65 20.5C65.5523 20.5 66 20.0523 66 19.5H64ZM64 4V19.5H66V4H64Z" fill="#7E58FF"/>
<path d="M49 29C49 29.5523 49.4477 30 50 30C50.5523 30 51 29.5523 51 29H49ZM49 0V29H51V0H49Z" fill="#7E58FF"/>
<path d="M35 143V158.5" stroke="#7E58FF" stroke-width="2" stroke-linecap="round"/>
<path d="M65 143V158.5" stroke="#7E58FF" stroke-width="2" stroke-linecap="round"/>
<path d="M50 132V161" stroke="#7E58FF" stroke-width="2" stroke-linecap="round"/>
</svg>
