<svg width="1600" height="700" viewBox="0 0 1600 700" fill="none" xmlns="http://www.w3.org/2000/svg">
<rect x="480.5" y="284.5" width="54" height="54" rx="19.5" transform="rotate(-90 480.5 284.5)" stroke="url(#paint0_linear_137_5)"/>
<rect x="580.5" y="610.5" width="54" height="54" rx="19.5" transform="rotate(-90 580.5 610.5)" stroke="url(#paint1_linear_137_5)"/>
<rect x="602.5" y="550.5" width="54" height="54" rx="19.5" transform="rotate(-90 602.5 550.5)" stroke="url(#paint2_linear_137_5)"/>
<rect x="663.5" y="550.5" width="54" height="54" rx="19.5" transform="rotate(-90 663.5 550.5)" stroke="url(#paint3_linear_137_5)"/>
<rect x="602.5" y="490.5" width="54" height="54" rx="19.5" transform="rotate(-90 602.5 490.5)" stroke="url(#paint4_linear_137_5)"/>
<rect x="547.5" y="523.5" width="54" height="54" rx="19.5" transform="rotate(-90 547.5 523.5)" stroke="url(#paint5_linear_137_5)"/>
<rect x="540.5" y="284.5" width="54" height="54" rx="19.5" transform="rotate(-90 540.5 284.5)" stroke="url(#paint6_linear_137_5)"/>
<rect x="420.5" y="249.5" width="54" height="54" rx="19.5" transform="rotate(-90 420.5 249.5)" stroke="url(#paint7_linear_137_5)"/>
<rect x="1016.5" y="356.5" width="54" height="54" rx="19.5" transform="rotate(-90 1016.5 356.5)" stroke="url(#paint8_linear_137_5)"/>
<rect x="1077.5" y="356.5" width="54" height="54" rx="19.5" transform="rotate(-90 1077.5 356.5)" stroke="url(#paint9_linear_137_5)"/>
<rect x="480.5" y="167.5" width="54" height="54" rx="19.5" stroke="url(#paint10_linear_137_5)"/>
<path d="M508 204L509.732 216H506.268L508 204Z" fill="#C6C6C6"/>
<path d="M508 230L506.268 218H509.732L508 230Z" fill="#C6C6C6"/>
<path d="M495 217L507 215.268V218.732L495 217Z" fill="#C6C6C6"/>
<path d="M521 217L509 218.732V215.268L521 217Z" fill="#C6C6C6"/>
<rect x="507" y="216" width="2" height="2" fill="#C6C6C6"/>
<path d="M1102.56 343.947L1109.59 353.826L1106.51 355.41L1102.56 343.947Z" fill="#C6C6C6"/>
<path d="M1114.45 367.067L1107.42 357.189L1110.5 355.604L1114.45 367.067Z" fill="#C6C6C6"/>
<path d="M1096.95 361.454L1106.83 354.424L1108.41 357.505L1096.95 361.454Z" fill="#C6C6C6"/>
<path d="M1120.07 349.56L1110.19 356.59L1108.6 353.51L1120.07 349.56Z" fill="#C6C6C6"/>
<rect x="1107.16" y="355.075" width="2" height="2" transform="rotate(-27.2251 1107.16 355.075)" fill="#C6C6C6"/>
<defs>
<linearGradient id="paint0_linear_137_5" x1="507.5" y1="285" x2="507.5" y2="340" gradientUnits="userSpaceOnUse">
<stop stop-color="#EAEAEA"/>
<stop offset="1" stop-color="#746F6F" stop-opacity="0"/>
</linearGradient>
<linearGradient id="paint1_linear_137_5" x1="607.5" y1="611" x2="607.5" y2="666" gradientUnits="userSpaceOnUse">
<stop stop-color="#EAEAEA"/>
<stop offset="1" stop-color="#746F6F" stop-opacity="0"/>
</linearGradient>
<linearGradient id="paint2_linear_137_5" x1="629.5" y1="551" x2="629.5" y2="606" gradientUnits="userSpaceOnUse">
<stop stop-color="#EAEAEA"/>
<stop offset="1" stop-color="#746F6F" stop-opacity="0"/>
</linearGradient>
<linearGradient id="paint3_linear_137_5" x1="690.5" y1="551" x2="690.5" y2="606" gradientUnits="userSpaceOnUse">
<stop stop-color="#EAEAEA"/>
<stop offset="1" stop-color="#746F6F" stop-opacity="0"/>
</linearGradient>
<linearGradient id="paint4_linear_137_5" x1="629.5" y1="491" x2="629.5" y2="546" gradientUnits="userSpaceOnUse">
<stop stop-color="#EAEAEA"/>
<stop offset="1" stop-color="#746F6F" stop-opacity="0"/>
</linearGradient>
<linearGradient id="paint5_linear_137_5" x1="574.5" y1="524" x2="574.5" y2="579" gradientUnits="userSpaceOnUse">
<stop stop-color="#EAEAEA"/>
<stop offset="1" stop-color="#746F6F" stop-opacity="0"/>
</linearGradient>
<linearGradient id="paint6_linear_137_5" x1="567.5" y1="285" x2="567.5" y2="340" gradientUnits="userSpaceOnUse">
<stop stop-color="#EAEAEA"/>
<stop offset="1" stop-color="#746F6F" stop-opacity="0"/>
</linearGradient>
<linearGradient id="paint7_linear_137_5" x1="447.5" y1="250" x2="447.5" y2="305" gradientUnits="userSpaceOnUse">
<stop stop-color="#EAEAEA"/>
<stop offset="1" stop-color="#746F6F" stop-opacity="0"/>
</linearGradient>
<linearGradient id="paint8_linear_137_5" x1="1043.5" y1="357" x2="1043.5" y2="412" gradientUnits="userSpaceOnUse">
<stop stop-color="#EAEAEA"/>
<stop offset="1" stop-color="#746F6F" stop-opacity="0"/>
</linearGradient>
<linearGradient id="paint9_linear_137_5" x1="1104.5" y1="357" x2="1104.5" y2="412" gradientUnits="userSpaceOnUse">
<stop stop-color="#EAEAEA"/>
<stop offset="1" stop-color="#746F6F" stop-opacity="0"/>
</linearGradient>
<linearGradient id="paint10_linear_137_5" x1="507.5" y1="167" x2="507.5" y2="222" gradientUnits="userSpaceOnUse">
<stop stop-color="#EAEAEA"/>
<stop offset="1" stop-color="#746F6F" stop-opacity="0"/>
</linearGradient>
</defs>
</svg>
